/* XPM */
static char *result[] = {
/* columns rows colors chars-per-pixel */
"48 48 10 1 ",
"  c #422632",
". c #733D3B",
"X c #F77622",
"o c #D77643",
"O c #E67C44",
"+ c #FDAE35",
"@ c #FFAD5D",
"# c #C28569",
"$ c #FEE861",
"% c #EBD4AB",
/* pixels */
"@@@@@@@@@@@@@@@@@@@@@@@@@@@@@@@@@@@@@@@@@@@@@@@@",
"@@@O@@@@@@@@@@@@@@@@@@@@@@@O@@@@@@@@@@@@@@@@@@@@",
"@@@O@@@@@@@@@@@@@@@@@@@@@@@O@@@@@@@@@@@@@@@@@@@@",
"@OO@@@@@@@@@@@@@@@@@@@@@@OO@@@@@@@@@@@@@@@@@@@@@",
"@@@@@@@@@@@@@+++++@@@@@@@@@@@@@+++++@@@@@@@@@@@@",
"@@@@@@@@@@@@@+++++@@@@@@@@@@@@@+++++@@@@@@@@@@@@",
"@@@@@@@@@@...+++++.............+++++...@@@@@@@@@",
"@@@@@@@@@@...+++++.............+++++...@@@@@@@@@",
"@@@@@@@@@@...+++++.............+++++...@@@@@@@@@",
"@@@@@@@@@@   ++$++         .   ++$++   @@@@@@@@@",
"@@@@@@@+++...$$$$$.............$$$$$...+++@@@@@@",
"@@@@@@@+++...$$$$$.............$$$$$...+++@@@@@@",
"@@@@@@@+++...$$$$$.............$$$$$...+++@@@@@@",
"@@@@@@@+++...+++++.............+++++...+++@@@@@@",
"@@@@@@@+++...+++++.............+++++...+++@@@@@@",
"@@@@@@@+++   +++++   .         +++++   +++@@@@@@",
"@@@@@@@+++...+++++.............+++++...+++@@@@@@",
"@@@@@@@+++...+++++.............+++++...+++@@@@@@",
"@@@@@@@+++...+++XX.............XX+XX...+++@@@@@@",
"@@@@@@@+++   XXXXX.      ..... XXXXX   +$$O@@@@@",
"@@@@@@@+++   XXXXX.      ..... XXXXX   +$$O@@@@@",
"@@@@@@@+++   XXXXX             XXXXX   +$$@OO@@@",
"@@@@@@@++++++++++++++++++++++++++++++$$$$$@@@@@@",
"@@@@@@@++++++++++++++++++++++++++++++$$$$$@@@@@@",
"@@@@@@@XXXXXXXXXXXXXXXXXXXXXXXXXXXXXXXXXXX@@@@@@",
"@@@O@@@@@ooo          +++++          ooo@@@@@@@@",
"@@@O@@@@@ooo          +++++          ooo@@@@@@@@",
"@OO@@@@XX+++ ..... ...+++++... ..... +++XX@@@@@@",
"@@@@@@@XX+++ ..... ...##$##... ..... +++XX@@@@@@",
"@@@@@@@XX+++ ..... ...##$##... ..... +++XX@@@@@@",
"@@@@@@@XX+++...... ...  X  ......... +++XX@@@@@@",
"@@@@@@@@@+++...... ..%  %  %.. ......+++@@@@@@@@",
"@@@@@@@@@+++...... ..%  %  %.. ......+++@@@@@@@@",
"@@@@@@@@@+++ ........%%%%%%%.. ......+++@@@@@@@@",
"@@@@@@@@@+++ ..... ..#######.. ..... +++@@@@@@@@",
"@@@@@@@@@+++ ..... ..#######.. ..... +++@@@@@@@@",
"@@@@@@@@@+++ ..... ..### ###.. ..... +++@@@@@@@@",
"@@@@@@@++++++++++++++#######++++++++++++$$@@@@@@",
"@@@@@@@++++++++++++++#######++++++++++++$$@@@@@@",
"@@@@@@@+++++++++++++++++++++++$++$$$+$$$$$@@@@@@",
"@@@@@@@XXXXXXXXXXXXXXXXXXXXXXXXXXXXXXXXXXX@@@@@@",
"@@@@@@@XXXXXXXXXXXXXXXXXXXXXXXXXXXXXXXXXXX@@@@@@",
"@@@@@@@@@@@@@@@@@@@@@@@@@@@@@@@@@@@@@@@@@@@@@@@@",
"@@@@@@@@@@@@@@@@@@O@@@@@@@@@@@@@@@@@@@@@@@O@@@@@",
"@@@@@@@@@@@@@@@@@@O@@@@@@@@@@@@@@@@@@@@@@@O@@@@@",
"@@@@@@@@@@@@@@@@@@@OO@@@@@@@@@@@@@@@@@@@@@@OO@@@",
"@@@@@@@@@@@@@@@@@@@@@@@@@@@@@@@@@@@@@@@@@@@@@@@@",
"@@@@@@@@@@@@@@@@@@@@@@@@@@@@@@@@@@@@@@@@@@@@@@@@"
};
