/* XPM */
static char *result[] = {
/* columns rows colors chars-per-pixel */
"48 48 11 1 ",
"  c #141B1B",
". c #61372E",
"X c #E66A3A",
"o c #965340",
"O c #A3754E",
"+ c #E67C44",
"@ c #F38C4C",
"# c #FFAD5D",
"$ c #C69469",
"% c #D2B37D",
"& c #EECF9B",
/* pixels */
"#############                      #############",
"###+#####    &&&&&&&&&&&&&&&&&&&&&&    #########",
"###+###  &&&&&&&&&&&&&&&&&&&&&&&&&&&&&&  #######",
"#++### &&&&&$$...$$...$$...$$...$$...&&&& ######",
"##### &&&&....@@@..@@@..@@@..@@@..@@@.&&&& #####",
"#### %&&&.@@oo@@@oo@@@oo@@@oo@@@oo@@@.$&&&% ####",
"#### %&&&.@@XX@@@XX@@@XX@@@XX@@@XX@@@X$&&&% ####",
"#### %&&&o@@oo@@@oo@@@oo@@@oo@@@oo@@@o&&&&% ####",
"#### %&&&X@@XX@@@XX@@@XX@@@XX@@@XX@@@X&&&&% ####",
"#### %&&&&@@oo@@@oo@@@oo@@@oo@@@oo@@@&&&&&% ####",
"#### $%&&&&&XX@@@XX@@@XX@@@XX@@@XX@&&&&&&%$ ####",
"#### $$%%&&&&&&&&&&%&&&&&&&&&&&&&&&&&&&%%$$ ####",
"#### $$$$%%&&&&&&&&%&&&&&&&&&&&&&&&&&%%$$$$ ####",
"#### $$$$...%%%%%%%O%%%%%%%%%%%%%%%%...$$$$ ####",
"#### $$$.@@@.$$$$$...$$$$$$...$$$$$.@@@.$$$ ####",
"#### $$$.XXX.$$$$.@@@.$$$$.@@@.$$$$.XXX.$$$ ####",
"### %%$$.XXX.$$$$.XXX.$$$$.XXX.$$$$.XXX.$$%% ###",
"## %%%%$$...$$$$$.XXX.$$$$.XXX.$$$$$...$$%%%% ##",
"## %%%%%%$$$$$$$$O...$$$$$$...$$$$$$$$$$$%%%% ##",
"# %%%%%%%%%$$$$$O$$$$$$$$$$$$$$$$$$$$%%%%%%%%% #",
"# %%%%%%%%%%%%%$%%%%%%%%%%%%%%%%%%%%%%%$%%%%%% #",
" $%%%%%%%%%%%%$%%%%%%%%%%%%%%%%%%%%%%%%%$%%%%%$ ",
" $%%%%%%%%%%%%$  %%%%%%%%%%%%%%  %%%%%%$%$%%%%$ ",
" $$%%%%%%%%%%  @@              @@  %%%$%%%$%%$$ ",
" $$$%%%%%%%% @o@@o@@@@@@@@@@@@o@@o@ %%%%%%$$$$$ ",
" $$$$$%%%%%% XXooXXXXXXXXXXXXXXooXX %%%%%%O$$$$ ",
" $$$$$$$$%%% oXXXX@@XXXXXXX@@XXXXXo %%%$$$O$$$$ ",
" $$$$$$$$$$$ XXXXXXXXXXXXXXXXXXXXXX $$$$$$OOO$$ ",
" $$$$$$$$$$$ ooXXX@@@@@XXX@@@@XXXoo $$$$$O$$$O$ ",
" $$OO$$O$$$$oXX@@XXXXXXXXXXXXXX@@XXo$$$$O$$$$$o ",
" $O@@$O$$$$$$oo@@oooooooooooooo@@oo$$$$O$$$$$$$ ",
" $O@@&&&$OO$$OOooOOOOOOOOOOOOOOooOO$$$$O$$$$$$$ ",
" $$$$&&&O@@O$$OOOO            OOOO$$$ oo $$$$$$ ",
" $$&&&&&$@@O$$$OO              OO$$$  oo .%$$$$ ",
" $$&&###&$$O$$$OO              OO$$   XX ..%$$$ ",
" o$&#####&&O$$OO                OO$ooX@XoX.%$$$ ",
" $O&##&##&&O$$OO                OO$ooXX@oX.%$$$ ",
" $$&#####&&O$$OO                OO$   XX...%$$$ ",
" $O$&###&&&O$$OO                OO$$..XX..%$$$$ ",
" O@@&&&&&&&O$$OO                OO$$$....%$$$$$ ",
" O@@&&&&&$$O$$OO                OO$$$%%%%$$$$$$ ",
" $OOO&&&$@@O$$OO                OO$$$$$$$$$$$$$ ",
" $$$$OOOO@@O$$OO                OO$$$$$$$$$$$$$ ",
" O$$$O$$$OO$$$OO                OO$$$$$$$$$$$$O ",
"#.OO$O$$$$$$$$OO    oooooooo    OO$$$$$$$$$$OO.#",
"##..OOOO$$$$$OOO  oooooooooooo  OOO$$$$$OOOO..##",
"####....OOOOOOOO oooooooooooooo OOOOOOOO....####",
"########........################........########"
};
