/* XPM */
static char *result[] = {
/* columns rows colors chars-per-pixel */
"48 48 6 1 ",
"  c #141B1B",
". c #E46D3A",
"X c #E0394C",
"o c #E67C44",
"O c #EF914F",
"+ c #FFAD5D",
/* pixels */
"++++++++++++++++++++++++++++++++++++++++++++++++",
"+++o+++++++++++++++++++++++o++++++++++++++++++++",
"+++o+++++++++++++++++++++++o++++++++++++++++++++",
"+oo++++++++++++++++++++++oo+++++++++++++++++++++",
"++++++++++++++++++++++++++++++++++++++++++++++++",
"++++++++++++++++++++++++++++++++++++++++++++++++",
"++++++++++++++++++++++++++++++++++++++++++++++++",
"++++++++++++++++++++++++++++++++++++++++++++++++",
"++++++++++++++++++++++++++++++++++++++++++++++++",
"++++++++++++++++++++++++++    ++++++++++++++++++",
"++++++++++++++++++++++++++    ++++++++++++++++++",
"++++++++++++++      ++++++  XX  ++++++++++++++++",
"++++++++++++++      ++++++  XX  ++++++++++++++++",
"++++++++++++++  XXXX    ++  XXXX  ++++++++++++++",
"++++++++++++++  XXXX    ++  XXXX  ++++++++++++++",
"++++++++++++++  XXXXXXXX    XXXXXX  ++++++++++++",
"++++++++++++++  XXXXXXXX    XXXXXX  ++++++++++++",
"++++++++++++++  XX..XXXXXX..XXXXXX    ++++++++++",
"++++++++++++++  XX..XXXXXX..XXXXXX    ++++++++++",
"++++++++    ++  XX....XXXX....XXXX  XX  ++o+++++",
"++++++++    ++  XX....XXXX....XXXX  XX  ++o+++++",
"++++++++  XX    XXOOOO..XXOOOO..XXXXXX  +++oo+++",
"++++++++  XX    XXOOOO..XXOOOO..XXXXXX  ++++++++",
"++++++++  XXXXXX..OOOOOO..OOOO..XXXXXX  ++++++++",
"++++++++  XXXXXX..OOOOOO..OOOO..XXXXXX  ++++++++",
"+++o++++  XX....OOOOOOOOOOOOOO..XXXX  ++++++++++",
"+++o++++  XX....OOOOOOOOOOOOOO..XXXX  ++++++++++",
"+oo+++++  XX....OOOOOOOOOOOOOOOO..XX  ++++++++++",
"++++++++  XX....OOOOOOOOOOOOOOOO..XX  ++++++++++",
"++++++++    XX..OOOOOOOOOOOOOOOOOOXX  ++++++++++",
"++++++++    XX..OOOOOOOOOOOOOOOOOOXX  ++++++++++",
"++++++++++  XX..OOOOOOOOOOOOOOOOOO..XX  ++++++++",
"++++++++++  XX..OOOOOOOOOOOOOOOOOO..XX  ++++++++",
"++++++++++  XX..OOOOOOOOOOOOOOOOOO..XX  ++++++++",
"++++++++++  XX..OOOOOOOOOOOOOOOOOO..XX  ++++++++",
"++++++++++++  XXXXXXXXXXXXXXXXXXXXXX  ++++++++++",
"++++++++++++  XXXXXXXXXXXXXXXXXXXXXX  ++++++++++",
"++++++++++++++                      ++++++++++++",
"++++++++++++++                      ++++++++++++",
"++++++++++++++++++++++++++++++++++++++++++++++++",
"++++++++++++++++++++++++++++++++++++++++++++++++",
"++++++++++++++++++++++++++++++++++++++++++++++++",
"++++++++++++++++++++++++++++++++++++++++++++++++",
"++++++++++++++++++o+++++++++++++++++++++++o+++++",
"++++++++++++++++++o+++++++++++++++++++++++o+++++",
"+++++++++++++++++++oo++++++++++++++++++++++oo+++",
"++++++++++++++++++++++++++++++++++++++++++++++++",
"++++++++++++++++++++++++++++++++++++++++++++++++"
};
