/* XPM */
static char *result[] = {
/* columns rows colors chars-per-pixel */
"48 48 7 1 ",
"  c #141B1B",
". c #3B3643",
"X c #4E484A",
"o c #5F7160",
"O c #D14B34",
"+ c #E67C44",
"@ c #FFAD5D",
/* pixels */
"@@@@@@@@@@@@@@@@@@@@@@@@@@@@@@@@@@@@@@@@@@@@@@@@",
"@@@+@@@@@@@@@@@@@@@@@@@@@@@+@@@@@@@@@@@@@@@@@@@@",
"@@@+@@@@@@@@@@@@@@@@@@@@@@@+@@@@@@@@@@@@@@@@@@@@",
"@++@@@@@@@@@@@@@@@@@@@@@@++@@@@@@@@@@@@@@@@@@@@@",
"@@@@@@@@@@@@@@@@@@@@@@@@@@@@@@@@@@@@@@@@@@@@@@@@",
"@@@@@@@@@@@@@@@@@@@@@@@@@@@@@@@@@@@@@@@@@@@@@@@@",
"@@@@@@@@@@@@@@@@@@@@@@@@@@@@@@@@@@@@@@@@@@@@@@@@",
"@@@@@@@@@@@@@@@@@@@@@@@@@@@@@@@@@@@@@@@@@@@@@@@@",
"@@@@@@@@@@      @@@@@@@@@@@@@@@@@@@@@@@@@@@@@@@@",
"@@@@@@@@@@      @@@@@@@@@@@@@@@@@@@@@@@@@@@@@@@@",
"@@@@@@@@@@  oooo                @@@@@@@@@@@@@@@@",
"@@@@@@@@@@  oooo                @@@@@@@@@@@@@@@@",
"@@@@@@@@    ooXXXXXXoooooooooooo  @@@@@@@@@@@@@@",
"@@@@@@@@    ooXXXXXXoooooooooooo  @@@@@@@@@@@@@@",
"@@@@@@@@  ooXXXXooooXXoooooooooooo  @@@@@@@@@@@@",
"@@@@@@@@  ooXXXXooooXXoooooooooooo  @@@@@@@@@@@@",
"@@@@@@@@  ooooXXooooXXooooooooooooXX  @@@@@@@@@@",
"@@@@@@@@  ooooXXooooXXooooooooooooXX  @@@@@@@@@@",
"@@@@@@@@      XXXXXXooooooooooooooXX  @@@@@@@@@@",
"@@@@@@@@      XXXXXXooooooooooooooXX  @@@@+@@@@@",
"@@@@@@@@@@  XXXXooooooooooooooooXXXX  @@@@+@@@@@",
"@@@@@@@@@@  XXXXooooooooooooooooXXXX  @@@@@++@@@",
"@@@@@@@@@@  XXXXXXXXXXXXXXXXXXXXXXXX  @@@@@@@@@@",
"@@@@@@@@@@  XXXXXXXXXXXXXXXXXXXXXXXX  @@@@@@@@@@",
"@@@@@@@@@@  XXXXXXXXXXXXXXXXXXXXXXXX  @@@@@@@@@@",
"@@@+@@@@@@  XXXXXXXXXXXXXXXXXXXXXXXX  @@@@@@@@@@",
"@@@+@@@@@@  XXXXXXXXXXXXXXXXXXXXXXXX  @@@@@@@@@@",
"@++@@@@@@@  XXXXXXXXXXXXXXXXXXXXXXXX  @@@@@@@@@@",
"@@@@@@@@@@@@  XXXXXXXXXXXXXXXXXXXX  @@@@@@@@@@@@",
"@@@@@@@@@@@@  XXXXXXXXXXXXXXXXXXXX  @@@@@@@@@@@@",
"@@@@@@@@@@@@    ................    @@@@@@@@@@@@",
"@@@@@@@@@@@@    ................    @@@@@@@@@@@@",
"@@@@@@@@@@  OOOOXX..XXXXXXXX..XXOOOO  @@@@@@@@@@",
"@@@@@@@@@@  OOOOXX..XXXXXXXX..XXOOOO  @@@@@@@@@@",
"@@@@@@@@@@  OOOO................OOOO  @@@@@@@@@@",
"@@@@@@@@@@  OOOO................OOOO  @@@@@@@@@@",
"@@@@@@@@@@@@    ......    ......    @@@@@@@@@@@@",
"@@@@@@@@@@@@    ......    ......    @@@@@@@@@@@@",
"@@@@@@@@@@      @@@@@@@@@@@@@@@@@@@@@@@@@@@@@@@@",
"@@@@@@@@@@      @@@@@@@@@@@@@@@@@@@@@@@@@@@@@@@@",
"@@@@@@@@@@@@@@@@@@@@@@@@@@@@@@@@@@@@@@@@@@@@@@@@",
"@@@@@@@@@@@@@@@@@@@@@@@@@@@@@@@@@@@@@@@@@@@@@@@@",
"@@@@@@@@@@@@@@@@@@@@@@@@@@@@@@@@@@@@@@@@@@@@@@@@",
"@@@@@@@@@@@@@@@@@@+@@@@@@@@@@@@@@@@@@@@@@@+@@@@@",
"@@@@@@@@@@@@@@@@@@+@@@@@@@@@@@@@@@@@@@@@@@+@@@@@",
"@@@@@@@@@@@@@@@@@@@++@@@@@@@@@@@@@@@@@@@@@@++@@@",
"@@@@@@@@@@@@@@@@@@@@@@@@@@@@@@@@@@@@@@@@@@@@@@@@",
"@@@@@@@@@@@@@@@@@@@@@@@@@@@@@@@@@@@@@@@@@@@@@@@@"
};
