/* XPM */
static char *result[] = {
/* columns rows colors chars-per-pixel */
"48 48 8 1 ",
"  c #141B1B",
". c #3B3643",
"X c #4E484A",
"o c #5F7160",
"O c #D14B34",
"+ c #E67C44",
"@ c #EF914F",
"# c #FFAD5D",
/* pixels */
"################################################",
"###+#######################+####################",
"###+#######################+####################",
"#++######################++#####################",
"################################################",
"################################################",
"################################################",
"################################################",
"##################      ########################",
"##################      ########################",
"##############    XXXXXX        ################",
"##############    XXXXXX        ################",
"############  XX  ooooXXoooooooo  ##############",
"############  XX  ooooXXoooooooo  ##############",
"##########  XX  XXXXoooooooooooooo  ############",
"##########  XX  XXXXoooooooooooooo  ############",
"##########  XXooooXXooooooooooooooXX  ##########",
"##########  XXooooXXooooooooooooooXX  ##########",
"##########  XXooooooooooooooooooooXX  ##########",
"##########  XXooooooooooooooooooooXX  ####+#####",
"##########  XXXXooooooooooooooooXX  ######+#####",
"##########  XXXXooooooooooooooooXX  #######++###",
"##########  XXXXXXXXXXXX..OO    OO  ############",
"##########  XXXXXXXXXXXX..OO    OO  ############",
"##########  XXXXXXXXXXXX..OOOO  OOoo  ##########",
"###+######  XXXXXXXXXXXX..OOOO  OOoo  ##########",
"###+######  XXXXXXXXXXXXXXXXoooooooo  ##########",
"#++#######  XXXXXXXXXXXXXXXXoooooooo  ##########",
"############  XXXXXXXXXXXXXXXXXXXX  ############",
"############  XXXXXXXXXXXXXXXXXXXX  ############",
"##############  ................  ##############",
"##############  ................  ##############",
"##############  XX  OOOO  XX..  ################",
"##############  XX  OOOO  XX..  ################",
"##############  ..  @@@@  ....  ################",
"##############  ..  @@@@  ....  ################",
"################  ..      ..  ##################",
"################  ..      ..  ##################",
"################################################",
"################################################",
"################################################",
"################################################",
"################################################",
"##################+#######################+#####",
"##################+#######################+#####",
"###################++######################++###",
"################################################",
"################################################"
};
