/* XPM */
static char *result[] = {
/* columns rows colors chars-per-pixel */
"48 48 8 1 ",
"  c #141B1B",
". c #3B3643",
"X c #4E484A",
"o c #5F7160",
"O c #D14B34",
"+ c #E67C44",
"@ c #EF914F",
"# c #FFAD5D",
/* pixels */
"################################################",
"###+#######################+####################",
"###+#######################+####################",
"#++######################++#####################",
"################################################",
"################################################",
"################################################",
"################################################",
"##############################      ############",
"##############################      ############",
"##############                XXXX  ############",
"##############                XXXX  ############",
"############  ooooooooooooooooXXXX      ########",
"############  ooooooooooooooooXXXX      ########",
"##########  ooooooooooooooooooXX  XX    ########",
"##########  ooooooooooooooooooXX  XX    ########",
"########  XXooooooooooooooooooooXXXX    ########",
"########  XXooooooooooooooooooooXXXX    ########",
"########  XXoooooooooooooooooooo        ########",
"########  XXoooooooooooooooooooo        ##+#####",
"########  XXXXooooooooooooooooXXXX  ######+#####",
"########  XXXXooooooooooooooooXXXX  #######++###",
"########  XX..OO    OOOO    OO..XX  ############",
"########  XX..OO    OOOO    OO..XX  ############",
"########  XX..@@@@  @@@@  @@@@..XX  ############",
"###+####  XX..@@@@  @@@@  @@@@..XX  ############",
"###+####  XXXXooooooooooooooooXXXX  ############",
"#++#####  XXXXooooooooooooooooXXXX  ############",
"##########  XXXXXXXXXXXXXXXXXXXX  ##############",
"##########  XXXXXXXXXXXXXXXXXXXX  ##############",
"##########    ................    ##############",
"##########    ................    ##############",
"########  OOOOXX..XXXXXXXX..XXOOOO  ############",
"########  OOOOXX..XXXXXXXX..XXOOOO  ############",
"########  @@@@......    ......@@@@  ############",
"########  @@@@......    ......@@@@  ############",
"##########    ......    ......    ##############",
"##########    ......    ......    ##############",
"################################################",
"################################################",
"################################################",
"################################################",
"################################################",
"##################+#######################+#####",
"##################+#######################+#####",
"###################++######################++###",
"################################################",
"################################################"
};
