/* XPM */
static char *result[] = {
/* columns rows colors chars-per-pixel */
"48 48 10 1 ",
"  c #141B1B",
". c #546626",
"X c #7A7A3E",
"o c #E46D3A",
"O c #965340",
"+ c #A3754E",
"@ c #E67C44",
"# c #74A334",
"$ c #ADBC3A",
"% c #FFAD5D",
/* pixels */
"%%%%%%%%%%%%%%%%%                %%%%%%%%%%%%%%%",
"%%%@%%%%%%%%%%%%%                %%%%%%%%%%%%%%%",
"%%%@%%%%%%%%     #####$$$$$$#####    %%%%%%%%%%%",
"%@@%%%%%%   ########$$$$$$$$$########   %%%%%%%%",
"%%%%%%%%%   ########$$$$$$$$$########   %%%%%%%%",
"%%%%%%   #####$$$$$$##$$$$$$#$$$$$$$####   %%%%%",
"%%%%% #####$$$$$$$$$$$#$$$##$$$$$$$$$$$####  %%%",
"%%%%% #####$$$$$$$$$$$#$$$##$$$$$$$$$$$####  %%%",
"%%%  ####$$$$$$$$$$$$$$$$$$$$$$$$$$$$$$$##### %%",
"%% $$$##$$$$$$$$$$$$$$$$$$$$$$$$$$$$$$$$$$#$$$  ",
"%% $$$##$$$$$$$$$$$$$$$$$$$$$$$$$$$$$$$$$$#$$$  ",
"%% $$$$$$$$$$$$$$$$$$$$$$$$$$$$$$$$$$$$$$$$$$$  ",
"  $$$$$$$$$$$$$$$$$$$$$$$$$$$$$$$$$$$$$$$$$$$$$$",
"  $$$$$$$$$$$$$$$$$$$$$$$$$$$$$$$$$$$$$$$$$$$$$$",
"  $$$$$$$$$$$$$$$$$$$$$$$$$$$$$$$$$$$$$$$$$$$$$$",
"  #$$$$$$$$$$$$$$$$$$$$$$$$$$$$$$$$$$$$$$$$$$$##",
"  #$$$$$$$$$$$$$$$$$$$$$$$$$$$$$$$$$$$$$$$$$$$##",
"%% ##$$$$$$$$$$$$$$$$$$$$$$$$$$$$$$$$$$$$$$$$#  ",
"%% ##$$$$$$$$$$$$$$$$$$$$$$$$$$$$$$$$$$$$$$$$#  ",
"%% ###$$$$$$$$$$$$$$$$$$$$$$$$$$$$$$$$$$$$$###  ",
"  ###$$$$$$#$$$$$$$$$$$$$$$$$$$$$$$$$##$$$$$$###",
"  ###$$$$$$#$$$$$$$$$$$$$$$$$$$$$$$$$##$$$$$$###",
"  #$$$$$$$$$##$$$$$$$$$$$$$$$$$$$$$$#$$$$$$$$$##",
"  #$$$##$$$$$$#####$$$$$$$$$$$$#####$$$$$$#$$$##",
"  #$$$##$$$$$$#####$$$$$$$$$$$$#####$$$$$$#$$$##",
"  ###$$$###$$$#$$$$$$$$$$$$$$$$$$$##$$$###$$$###",
"%% XX#$$$######$$$$$$$$$$$$$$$$$$$######$$$##X  ",
"%@ XX#$$$######$$$$$$$$$$$$$$$$$$$######$$$##X  ",
"%% XX############$$$$$$$$$$$$$$$$############X  ",
"%%%  X########X#####$$#$$$##$#####XX#######XX %%",
"%%%  X########X#####$$#$$$##$#####XX#######XX %%",
"%%%  XXX####XXX###################XXX#####XXX %%",
"%%%  XXX####XXX###################XXX#####XXX %%",
"%%%%%   XXXXXXXXX################XXXXXXXXX   %%%",
"%%%%%%%%   XXXXXXXXX#########XXXXXXXXXX   %%%%%%",
"%%%%%%%%   XXXXXXXXX#########XXXXXXXXXX   %%%%%%",
"%%%%%%%%%%% .......XXXXXXXXXXXXXXXooo  %%%%%%%%%",
"%%%%%%%%%  ++++OOooo++oooooo+oo+++ooooo %%%%%%%%",
"%%%%%%%%%  ++++OOooo++oooooo+oo+++ooooo %%%%%%%%",
"%%%%%%%% +++OO+++ooooooooooo+oooo+ooo++o  %%%%%%",
"%%%%%%%% ++O+++++oooooooooooo++oo+ooo++o  %%%%%%",
"%%%%%%%% ++O+++++oooooooooooo++oo+ooo++o  %%%%%%",
"%%%%%%%%%OO++++oooo+ooooooooo++ooo+++oo+%%%%%%%%",
"%%%%%%%%%%%%%%+oo++ooo++++ooooo++o++%%%%%%@%%%%%",
"%%%%%%%%%%%%%%+oo++ooo++++ooooo++o++%%%%%%@%%%%%",
"%%%%%%%%%%%%%%%%%++o++oooo++ooo++%%%%%%%%%%@@%%%",
"%%%%%%%%%%%%%%%%%%%%%%+++ooo%%%%%%%%%%%%%%%%%%%%",
"%%%%%%%%%%%%%%%%%%%%%%+++ooo%%%%%%%%%%%%%%%%%%%%"
};
